<svg width="302" height="302" viewBox="0 0 302 302" fill="none" xmlns="http://www.w3.org/2000/svg">
<g clip-path="url(#clip0_8_60)">
<rect x="8" y="8" width="286" height="286" rx="143" fill="#1E1E1E"/>
<path d="M22 156.5L55 136.5M22 156.5H55M22 156.5L38 126.5M22 156.5L38 173.5M55 136.5L95 151.5M55 136.5V156.5M95 151.5L77 173.5M95 151.5L113 156.5M95 151.5L62 121.5M95 151.5V182.5M77 173.5L55 156.5M77 173.5L62 191.5M55 156.5L87.0168 132.487C91.2862 129.285 97.3884 130.481 100.134 135.057L113 156.5M55 156.5L38 173.5M113 156.5L95 182.5M113 156.5L121 136.5M113 156.5L133 161.5M95 182.5L62 191.5M95 182.5H121M62 191.5L38 173.5M38 173.5V126.5M38 126.5L62 121.5M62 121.5L121 136.5M121 136.5L182 102.5M121 136.5L133 161.5M182 102.5L211 61.5M182 102.5L172 89.5M182 102.5H211M211 61.5L232 102.5M211 61.5L195 67.5M211 61.5L232 73.5M211 61.5H166M211 61.5L198.786 -64.8659C198.34 -69.4795 194.463 -73 189.828 -73H111L54.1911 -67.0201C46.5888 -66.2199 43.3825 -56.9054 48.8815 -51.5954L166 61.5M232 102.5L166 61.5M232 102.5V73.5M232 102.5H211M232 102.5L218 126.5M166 61.5L218 126.5M166 61.5L172 89.5M166 61.5L195 67.5M218 126.5L211 169.083M206 199.5L244 191.5M206 199.5L211 169.083M206 199.5L182 191.5M206 199.5L232 213.5M206 199.5L195 223.5M244 191.5L232 213.5M244 191.5V169.083M244 191.5L305.159 379.212C307.054 385.028 302.719 391 296.602 391H262.909C258.386 391 254.565 387.642 253.984 383.157L232 213.5M232 213.5L228.5 193.5M232 213.5L195 223.5M182 191.5L214.603 177.852C219.929 175.623 225.948 178.915 226.943 184.603L228.5 193.5M182 191.5L121 182.5M182 191.5L211 169.083M182 191.5L195 223.5M121 182.5L133 161.5M133 161.5L172 89.5M172 89.5L195 67.5M195 67.5L232 73.5M232 73.5L211 102.5M232 73.5L401 106M211 169.083H244M244 169.083L228.5 193.5M244 169.083L401 106M244 169.083L340.637 153.384C342.185 153.132 343.641 152.48 344.86 151.493L401 106" stroke="#DDBB70" stroke-width="2"/>
<path d="M182 102.5L211 61.5M182 102.5L172 89.5M182 102.5H211M182 102.5L122 137M211 61.5L232 102.5M211 61.5L195 67.5M211 61.5L232 73.5M211 61.5H166M211 61.5L270 -139L-13 -127L166 61.5M232 102.5L166 61.5M232 102.5V73.5M232 102.5H211M232 102.5L224.609 115.171C221.425 120.629 213.754 121.193 209.807 116.258L166 61.5M166 61.5L172 89.5M166 61.5L195 67.5M172 89.5L195 67.5M172 89.5L132 162M195 67.5L232 73.5M232 73.5L211 102.5" stroke="#70C9DD" stroke-width="2"/>
<path d="M22 156.5L55 136.5M22 156.5H55M22 156.5L38 126.5M22 156.5L38 173.5M22 156.5L-207 173.5M55 136.5L95 151.5M55 136.5V156.5M95 151.5L77 173.5M95 151.5L113 156.5M95 151.5L62 121.5M95 151.5V182.5M77 173.5L55 156.5M77 173.5L62 191.5M55 156.5L87.0167 132.487C91.2862 129.285 97.3884 130.481 100.134 135.057L113 156.5M55 156.5L38 173.5M113 156.5L95 182.5M113 156.5L121 136.5M113 156.5L133 161.5M95 182.5L62 191.5M95 182.5H115.777C119.007 182.5 121.989 180.769 123.591 177.965L133 161.5M62 191.5L38 173.5M62 191.5L-75 410L-152 378L38 173.5M38 173.5V126.5M38 126.5L62 121.5M38 126.5L-127 -115L-181 -91L38 126.5ZM62 121.5L121 136.5M121 136.5L133 161.5M-207 173.5L-231 182.5L-207 191.5V173.5Z" stroke="#7EDD70" stroke-width="2"/>
</g>
<rect x="4" y="4" width="294" height="294" rx="147" stroke="#3D3D3D" stroke-width="8"/>
<defs>
<clipPath id="clip0_8_60">
<rect x="8" y="8" width="286" height="286" rx="143" fill="white"/>
</clipPath>
</defs>
</svg>
